<svg width="132" height="26" viewBox="0 0 132 26" fill="none" xmlns="http://www.w3.org/2000/svg">
<path d="M0 13C0 5.8203 5.8203 0 13 0H119C126.18 0 132 5.8203 132 13C132 20.1797 126.18 26 119 26H13C5.8203 26 0 20.1797 0 13Z" fill="url(#paint0_linear)"/>
<path d="M25.8827 9.51592H26.6584C29.0356 9.51592 30.9596 11.4518 30.9596 13.8212V17.5215C30.9395 17.7433 30.7481 17.9248 30.5164 17.9248H21.2793C20.413 17.9248 19.6172 17.5719 19.043 16.9972C18.4688 16.4326 18.1163 15.626 18.1163 14.7589V8.66898C18.1163 8.427 18.3177 8.22534 18.5595 8.22534H19.8086C20.0503 8.22534 20.2518 8.427 20.2518 8.66898V14.7589C20.2518 15.0513 20.3626 15.2933 20.554 15.4848C20.7454 15.6764 20.9972 15.7873 21.2793 15.7873H28.804V13.801C28.7939 12.6214 27.8369 11.6736 26.6584 11.6736H22.4478C22.0851 11.6736 21.8736 11.2501 22.0952 10.9577L25.3085 6.7432C25.3891 6.63229 25.5201 6.5718 25.6611 6.5718H27.5347C27.7765 6.5718 27.9175 6.85411 27.7664 7.04568L25.8827 9.51592Z" fill="url(#paint1_linear)"/>
<path d="M16.3333 8.23541C16.5751 8.23541 16.7765 8.43707 16.7765 8.67905H16.7665V14.769C16.7665 15.6361 16.4139 16.4427 15.8397 17.0073C15.2756 17.582 14.4698 17.9349 13.6035 17.9349H9.44322C9.20146 17.9349 9 17.7332 9 17.4913V16.241C9 15.999 9.20146 15.7974 9.44322 15.7974H13.6035C13.8956 15.7974 14.1373 15.6865 14.3287 15.4949C14.5201 15.3033 14.6309 15.0513 14.6309 14.769V8.67905C14.6309 8.43707 14.8324 8.23541 15.0742 8.23541H16.3333Z" fill="url(#paint2_linear)"/>
<path d="M53.9266 11.6736H55.1757C55.4275 11.6736 55.629 11.8753 55.6189 12.1072V14.7488C55.6189 15.6159 55.2663 16.4124 54.6922 16.9871C54.128 17.5619 53.3222 17.9147 52.4559 17.9147H49.8973C49.7563 17.9147 49.6253 17.8442 49.5447 17.7333L49.031 17.0577V17.4711C49.031 17.7131 48.8295 17.9147 48.5878 17.9147H42.0905C42.0603 18.7516 41.7178 19.5179 41.1638 20.0623C40.5997 20.6371 39.7938 20.9899 38.9276 20.9899H35.4624C34.5961 20.9899 33.8003 20.6371 33.2261 20.0623C32.6519 19.4977 32.2994 18.6911 32.2994 17.824V14.2043C32.2994 13.9624 32.5008 13.7607 32.7426 13.7607H33.9917C34.2334 13.7607 34.4349 13.9624 34.4349 14.2043V17.824C34.4349 18.1164 34.5457 18.3584 34.7371 18.55C34.9285 18.7415 35.1803 18.8524 35.4624 18.8524H38.9276C39.2197 18.8524 39.4614 18.7415 39.6528 18.55C39.814 18.3886 39.9248 18.1668 39.945 17.9248H38.5548C38.3131 17.9248 38.1116 17.7232 38.1116 17.4812V16.2309C38.1116 15.989 38.3131 15.7873 38.5548 15.7873H46.8753V12.6819C46.8653 12.4096 46.7544 12.1576 46.5731 11.9761C46.3817 11.7845 46.1299 11.6736 45.8479 11.6736H41.597C41.3351 11.6736 41.184 11.3711 41.3451 11.1594L42.433 9.70749C42.5136 9.59658 42.6446 9.526 42.7856 9.526H45.8479C46.7142 9.526 47.5099 9.87889 48.0841 10.4536C48.6482 11.0081 49.0008 11.7946 49.0109 12.6415V15.7873H52.4559C52.748 15.7873 52.9898 15.6764 53.1812 15.4848C53.3726 15.2933 53.4834 15.0412 53.4834 14.7589V12.1172C53.4834 11.8753 53.6848 11.6736 53.9266 11.6736Z" fill="url(#paint3_linear)"/>
<path d="M63.2544 10.4637C62.6903 9.88901 61.8844 9.53611 61.0181 9.53611H57.2104C56.9687 9.53611 56.7672 9.73777 56.7672 9.97975V11.23C56.7672 11.472 56.9687 11.6736 57.2104 11.6736H61.0181C61.3002 11.6736 61.552 11.7845 61.7434 11.9761C61.9348 12.1677 62.0456 12.4097 62.0456 12.7021V14.769C62.0456 15.0513 61.9348 15.3034 61.7434 15.4949C61.552 15.6865 61.3102 15.7974 61.0181 15.7974H57.2104C56.9687 15.7974 56.7672 15.9991 56.7672 16.2411V17.4913C56.7672 17.7333 56.9687 17.9349 57.2104 17.9349H61.0181C61.8844 17.9349 62.6903 17.582 63.2544 17.0073C63.8285 16.4326 64.1811 15.6361 64.1811 14.769V12.7021C64.1811 11.8249 63.8285 11.0283 63.2544 10.4637Z" fill="url(#paint4_linear)"/>
<path d="M43.8332 19.0742H45.0823C45.3241 19.0742 45.5255 19.2759 45.5255 19.528V20.5564C45.5255 20.7984 45.3241 21 45.0823 21H43.8332C43.5915 21 43.39 20.7984 43.39 20.5564V19.5179C43.39 19.2759 43.5915 19.0742 43.8332 19.0742Z" fill="url(#paint5_linear)"/>
<path d="M50.9248 19.0742H54.0575C54.2993 19.0742 54.5008 19.2759 54.5008 19.528V20.5564C54.5008 20.7984 54.2993 21 54.0575 21H50.9248C50.683 21 50.4815 20.7984 50.4815 20.5564V19.5179C50.4815 19.2759 50.683 19.0742 50.9248 19.0742Z" fill="url(#paint6_linear)"/>
<path d="M11.0348 14.4564C10.8333 14.4564 10.652 14.3152 10.6016 14.1237L9.15109 8.80004C9.08058 8.51773 9.29212 8.23541 9.58424 8.23541H10.8031C11.0046 8.23541 11.1859 8.37657 11.2362 8.56814L12.6868 13.8918C12.7573 14.1741 12.5458 14.4564 12.2536 14.4564H11.0348Z" fill="url(#paint7_linear)"/>
<path d="M104.274 11.2922H103.025C102.783 11.2922 102.581 11.4938 102.581 11.7358V14.3774C102.581 14.6598 102.471 14.9118 102.279 15.1034C102.088 15.295 101.846 15.4059 101.554 15.4059H98.109V7.08772C98.109 6.85581 97.9277 6.67433 97.696 6.67433H96.3764C96.1447 6.67433 95.9634 6.85581 95.9634 7.08772V15.4059H91.9945C92.065 15.1336 92.1154 14.8513 92.1154 14.5589V12.4819C92.1154 11.6148 91.7628 10.8082 91.1887 10.2436C90.6246 9.66887 89.8187 9.31597 88.9524 9.31597H85.1447C84.903 9.31597 84.7015 9.51763 84.7015 9.75961V11.0099C84.7015 11.2518 84.903 11.4535 85.1447 11.4535H88.9524C89.2345 11.4535 89.4863 11.5644 89.6777 11.756C89.8691 11.9475 89.9799 12.1895 89.9799 12.4819V14.5489C89.9799 14.8312 89.8691 15.0832 89.6777 15.2748C89.4863 15.4664 89.2445 15.5773 88.9524 15.5773H85.1447C84.903 15.5773 84.7015 15.7789 84.7015 16.0209V17.2712C84.7015 17.5131 84.903 17.7148 85.1447 17.7148H88.9524C89.8187 17.7148 90.6246 17.3619 91.1887 16.7872L91.2088 16.767V17.2913C91.2088 17.4224 91.3196 17.5333 91.4506 17.5333H97.6859C97.9277 17.5333 98.1291 17.3317 98.1291 17.0897V16.6763L98.6429 17.3518C98.7234 17.4627 98.8544 17.5333 98.9954 17.5333H101.554C102.42 17.5333 103.226 17.1804 103.79 16.6057C104.364 16.031 104.717 15.2345 104.717 14.3674V11.7358C104.717 11.4837 104.526 11.2922 104.274 11.2922Z" fill="url(#paint8_linear)"/>
<path d="M102.843 18.8642H99.7106C99.4688 18.8642 99.2674 19.0659 99.2674 19.3078V20.3463C99.2674 20.5883 99.4688 20.79 99.7106 20.79H102.843C103.085 20.79 103.287 20.5883 103.287 20.3463V19.3078C103.287 19.0659 103.085 18.8642 102.843 18.8642Z" fill="url(#paint9_linear)"/>
<path d="M82.9689 17.5232H81.5889C81.3874 17.5232 81.2162 17.3619 81.2162 17.1501V7.08769C81.2162 6.88604 81.3874 6.71464 81.5889 6.71464H82.9689C83.1704 6.71464 83.3416 6.88604 83.3416 7.08769V17.1501C83.3416 17.3518 83.1704 17.5232 82.9689 17.5232Z" fill="url(#paint10_linear)"/>
<path d="M79.1612 9.24539H72.8856C72.5431 9.24539 72.2611 9.52771 72.2611 9.87052V14.0649C72.2611 14.3069 72.4625 14.5085 72.7043 14.5085H77.5898C77.5697 14.7505 77.4588 14.9723 77.2977 15.1336C77.1063 15.3252 76.8645 15.4361 76.5724 15.4361H69.6118C69.3298 15.4361 69.0779 15.3252 68.8865 15.1336C68.6951 14.9421 68.5843 14.7001 68.5843 14.4077V10.7981C68.5843 10.5561 68.3829 10.3545 68.1411 10.3545H66.892C66.6503 10.3545 66.4488 10.5561 66.4488 10.7981V14.4178C66.4488 15.2849 66.8014 16.0915 67.3756 16.6561C67.9497 17.2308 68.7455 17.5837 69.6118 17.5837H76.5724C77.4387 17.5837 78.2446 17.2308 78.8087 16.6561C79.272 16.1923 79.5944 15.5672 79.6951 14.8816V12.371H74.5376V11.514H79.1512C79.4936 11.514 79.7757 11.2317 79.7757 10.8889V9.86043C79.7757 9.51762 79.5037 9.24539 79.1612 9.24539Z" fill="url(#paint11_linear)"/>
<ellipse rx="1.96562" ry="1.96447" transform="matrix(0.972979 0.230895 -0.230264 0.973128 19.7854 8.77359)" fill="url(#paint12_radial)"/>
<ellipse rx="0.103466" ry="3.27982" transform="matrix(0.716039 0.698324 -0.698055 0.715786 19.809 8.74867)" fill="url(#paint13_radial)"/>
<ellipse rx="0.103369" ry="3.48399" transform="matrix(0.458744 -0.888458 0.888277 0.459522 19.7664 8.78382)" fill="url(#paint14_radial)" fill-opacity="0.5"/>
<g clip-path="url(#clip0)">
<g filter="url(#filter0_d)">
<mask id="path-6-inside-1" fill="white">
<path fill-rule="evenodd" clip-rule="evenodd" d="M120.782 4.45286C120.745 3.8806 120.003 3.68179 119.685 4.15872L118.553 5.85349C118.358 6.14534 117.955 6.20838 117.681 5.99007L116.05 4.69406C115.604 4.33989 114.962 4.74749 115.092 5.30157L115.827 8.41452C112.072 8.80577 108.802 11.3754 107.794 15.135C106.477 20.0499 109.527 25.1373 114.605 26.4981C119.683 27.8588 124.868 24.9776 126.185 20.0627C127.241 16.122 125.49 12.0703 122.136 9.91759L124.188 7.73864C124.578 7.32415 124.226 6.65004 123.662 6.7339L121.602 7.04077C121.255 7.09247 120.938 6.83654 120.915 6.48636L120.782 4.45286Z"/>
</mask>
<path fill-rule="evenodd" clip-rule="evenodd" d="M120.782 4.45286C120.745 3.8806 120.003 3.68179 119.685 4.15872L118.553 5.85349C118.358 6.14534 117.955 6.20838 117.681 5.99007L116.05 4.69406C115.604 4.33989 114.962 4.74749 115.092 5.30157L115.827 8.41452C112.072 8.80577 108.802 11.3754 107.794 15.135C106.477 20.0499 109.527 25.1373 114.605 26.4981C119.683 27.8588 124.868 24.9776 126.185 20.0627C127.241 16.122 125.49 12.0703 122.136 9.91759L124.188 7.73864C124.578 7.32415 124.226 6.65004 123.662 6.7339L121.602 7.04077C121.255 7.09247 120.938 6.83654 120.915 6.48636L120.782 4.45286Z" fill="url(#paint15_linear)"/>
<path d="M119.685 4.15872L120.516 4.71402L120.516 4.71402L119.685 4.15872ZM120.782 4.45286L119.784 4.51793L119.784 4.51793L120.782 4.45286ZM118.553 5.85349L119.385 6.40878L119.385 6.40878L118.553 5.85349ZM117.681 5.99007L117.059 6.77299L117.681 5.99007ZM116.05 4.69406L115.428 5.47698L115.428 5.47698L116.05 4.69406ZM115.092 5.30157L114.119 5.53117L114.119 5.53117L115.092 5.30157ZM115.827 8.41452L115.93 9.40914C116.216 9.37935 116.476 9.22798 116.642 8.99365C116.809 8.75931 116.866 8.46468 116.8 8.18492L115.827 8.41452ZM122.136 9.91759L121.408 9.23211C121.204 9.4486 121.107 9.74457 121.144 10.0397C121.18 10.3348 121.346 10.5985 121.596 10.7591L122.136 9.91759ZM124.188 7.73864L124.916 8.42413L124.916 8.42412L124.188 7.73864ZM123.662 6.7339L123.515 5.74481L123.515 5.74481L123.662 6.7339ZM121.602 7.04077L121.749 8.02986L121.602 7.04077ZM120.915 6.48636L121.913 6.42129L121.913 6.42129L120.915 6.48636ZM120.516 4.71402C120.304 5.03197 119.809 4.89943 119.784 4.51793L121.78 4.38778C121.681 2.86176 119.702 2.33161 118.853 3.60343L120.516 4.71402ZM119.385 6.40878L120.516 4.71402L118.853 3.60343L117.721 5.29819L119.385 6.40878ZM117.059 6.77299C117.791 7.35517 118.865 7.18704 119.385 6.40878L117.721 5.29819C117.851 5.10363 118.12 5.0616 118.303 5.20714L117.059 6.77299ZM115.428 5.47698L117.059 6.77299L118.303 5.20714L116.672 3.91113L115.428 5.47698ZM116.066 5.07197C116.153 5.44136 115.725 5.71309 115.428 5.47698L116.672 3.91113C115.483 2.96669 113.771 4.05362 114.119 5.53117L116.066 5.07197ZM116.8 8.18492L116.066 5.07197L114.119 5.53117L114.854 8.64412L116.8 8.18492ZM108.76 15.3938C109.653 12.0629 112.558 9.76058 115.93 9.40914L115.723 7.41991C111.586 7.85096 107.951 10.6879 106.828 14.8762L108.76 15.3938ZM114.864 25.5322C110.289 24.3063 107.594 19.7457 108.76 15.3938L106.828 14.8762C105.36 20.3541 108.764 25.9684 114.346 27.464L114.864 25.5322ZM125.219 19.8039C124.053 24.1558 119.439 26.758 114.864 25.5322L114.346 27.464C119.928 28.9597 125.683 25.7995 127.151 20.3215L125.219 19.8039ZM121.596 10.7591C124.609 12.6936 126.154 16.3129 125.219 19.8039L127.151 20.3215C128.327 15.9311 126.37 11.447 122.677 9.07607L121.596 10.7591ZM123.46 7.05316L121.408 9.23211L122.864 10.6031L124.916 8.42413L123.46 7.05316ZM123.81 7.72299C123.434 7.7789 123.199 7.32949 123.46 7.05316L124.916 8.42412C125.956 7.31881 125.017 5.52118 123.515 5.74481L123.81 7.72299ZM121.749 8.02986L123.81 7.72299L123.515 5.74481L121.455 6.05168L121.749 8.02986ZM119.917 6.55143C119.978 7.48525 120.824 8.16771 121.749 8.02986L121.455 6.05168C121.686 6.01722 121.898 6.18784 121.913 6.42129L119.917 6.55143ZM119.784 4.51793L119.917 6.55143L121.913 6.42129L121.78 4.38778L119.784 4.51793Z" fill="url(#paint16_linear)" mask="url(#path-6-inside-1)"/>
</g>
<path d="M118.555 13.2953C118.772 13.0094 119.179 12.9518 119.468 13.1662C119.761 13.384 119.819 13.7991 119.598 14.0896L115.445 19.5459C115.228 19.8318 114.821 19.8893 114.532 19.675C114.239 19.4571 114.181 19.042 114.402 18.7515L118.555 13.2953Z" fill="#E6CB86"/>
<path d="M119 17.7793C119.552 17.7793 120 18.227 120 18.7793C120 19.3316 119.552 19.7793 119 19.7793C118.448 19.7793 118 19.3316 118 18.7793C118 18.227 118.448 17.7793 119 17.7793Z" fill="#E6CB86"/>
<path d="M116 14.2793C116 13.727 115.552 13.2793 115 13.2793C114.448 13.2793 114 13.727 114 14.2793C114 14.8316 114.448 15.2793 115 15.2793C115.552 15.2793 116 14.8316 116 14.2793Z" fill="#E6CB86"/>
</g>
<defs>
<filter id="filter0_d" x="103.488" y="-1.1089" width="27.0034" height="30.9441" filterUnits="userSpaceOnUse" color-interpolation-filters="sRGB">
<feFlood flood-opacity="0" result="BackgroundImageFix"/>
<feColorMatrix in="SourceAlpha" type="matrix" values="0 0 0 0 0 0 0 0 0 0 0 0 0 0 0 0 0 0 127 0"/>
<feOffset dy="-1"/>
<feGaussianBlur stdDeviation="2"/>
<feColorMatrix type="matrix" values="0 0 0 0 0 0 0 0 0 0 0 0 0 0 0 0 0 0 0.1 0"/>
<feBlend mode="normal" in2="BackgroundImageFix" result="effect1_dropShadow"/>
<feBlend mode="normal" in="SourceGraphic" in2="effect1_dropShadow" result="shape"/>
</filter>
<linearGradient id="paint0_linear" x1="10.7442" y1="-0.22952" x2="124.112" y2="32.5385" gradientUnits="userSpaceOnUse">
<stop stop-color="#FF1D39"/>
<stop offset="0.319894" stop-color="#FF004B"/>
<stop offset="1" stop-color="#C10253"/>
</linearGradient>
<linearGradient id="paint1_linear" x1="102.354" y1="5.54336" x2="8.9898" y2="16.7683" gradientUnits="userSpaceOnUse">
<stop stop-color="#FFE6C4"/>
<stop offset="0.317708" stop-color="#FFC686"/>
<stop offset="0.473958" stop-color="#FFDEB0"/>
<stop offset="0.651042" stop-color="#FFCB7D"/>
<stop offset="1" stop-color="#FFDDB3"/>
</linearGradient>
<linearGradient id="paint2_linear" x1="102.354" y1="5.54336" x2="8.9898" y2="16.7683" gradientUnits="userSpaceOnUse">
<stop stop-color="#FFE6C4"/>
<stop offset="0.317708" stop-color="#FFC686"/>
<stop offset="0.473958" stop-color="#FFDEB0"/>
<stop offset="0.651042" stop-color="#FFCB7D"/>
<stop offset="1" stop-color="#FFDDB3"/>
</linearGradient>
<linearGradient id="paint3_linear" x1="102.354" y1="5.54336" x2="8.9898" y2="16.7683" gradientUnits="userSpaceOnUse">
<stop stop-color="#FFE6C4"/>
<stop offset="0.317708" stop-color="#FFC686"/>
<stop offset="0.473958" stop-color="#FFDEB0"/>
<stop offset="0.651042" stop-color="#FFCB7D"/>
<stop offset="1" stop-color="#FFDDB3"/>
</linearGradient>
<linearGradient id="paint4_linear" x1="102.354" y1="5.54336" x2="8.9898" y2="16.7683" gradientUnits="userSpaceOnUse">
<stop stop-color="#FFE6C4"/>
<stop offset="0.317708" stop-color="#FFC686"/>
<stop offset="0.473958" stop-color="#FFDEB0"/>
<stop offset="0.651042" stop-color="#FFCB7D"/>
<stop offset="1" stop-color="#FFDDB3"/>
</linearGradient>
<linearGradient id="paint5_linear" x1="102.354" y1="5.54336" x2="8.9898" y2="16.7683" gradientUnits="userSpaceOnUse">
<stop stop-color="#FFE6C4"/>
<stop offset="0.317708" stop-color="#FFC686"/>
<stop offset="0.473958" stop-color="#FFDEB0"/>
<stop offset="0.651042" stop-color="#FFCB7D"/>
<stop offset="1" stop-color="#FFDDB3"/>
</linearGradient>
<linearGradient id="paint6_linear" x1="102.354" y1="5.54336" x2="8.9898" y2="16.7683" gradientUnits="userSpaceOnUse">
<stop stop-color="#FFE6C4"/>
<stop offset="0.317708" stop-color="#FFC686"/>
<stop offset="0.473958" stop-color="#FFDEB0"/>
<stop offset="0.651042" stop-color="#FFCB7D"/>
<stop offset="1" stop-color="#FFDDB3"/>
</linearGradient>
<linearGradient id="paint7_linear" x1="102.354" y1="5.54336" x2="8.9898" y2="16.7683" gradientUnits="userSpaceOnUse">
<stop stop-color="#FFE6C4"/>
<stop offset="0.317708" stop-color="#FFC686"/>
<stop offset="0.473958" stop-color="#FFDEB0"/>
<stop offset="0.651042" stop-color="#FFCB7D"/>
<stop offset="1" stop-color="#FFDDB3"/>
</linearGradient>
<linearGradient id="paint8_linear" x1="102.354" y1="5.54336" x2="8.9898" y2="16.7683" gradientUnits="userSpaceOnUse">
<stop stop-color="#FFE6C4"/>
<stop offset="0.317708" stop-color="#FFC686"/>
<stop offset="0.473958" stop-color="#FFDEB0"/>
<stop offset="0.651042" stop-color="#FFCB7D"/>
<stop offset="1" stop-color="#FFDDB3"/>
</linearGradient>
<linearGradient id="paint9_linear" x1="102.354" y1="5.54336" x2="8.9898" y2="16.7683" gradientUnits="userSpaceOnUse">
<stop stop-color="#FFE6C4"/>
<stop offset="0.317708" stop-color="#FFC686"/>
<stop offset="0.473958" stop-color="#FFDEB0"/>
<stop offset="0.651042" stop-color="#FFCB7D"/>
<stop offset="1" stop-color="#FFDDB3"/>
</linearGradient>
<linearGradient id="paint10_linear" x1="102.354" y1="5.54336" x2="8.9898" y2="16.7683" gradientUnits="userSpaceOnUse">
<stop stop-color="#FFE6C4"/>
<stop offset="0.317708" stop-color="#FFC686"/>
<stop offset="0.473958" stop-color="#FFDEB0"/>
<stop offset="0.651042" stop-color="#FFCB7D"/>
<stop offset="1" stop-color="#FFDDB3"/>
</linearGradient>
<linearGradient id="paint11_linear" x1="102.354" y1="5.54336" x2="8.9898" y2="16.7683" gradientUnits="userSpaceOnUse">
<stop stop-color="#FFE6C4"/>
<stop offset="0.317708" stop-color="#FFC686"/>
<stop offset="0.473958" stop-color="#FFDEB0"/>
<stop offset="0.651042" stop-color="#FFCB7D"/>
<stop offset="1" stop-color="#FFDDB3"/>
</linearGradient>
<radialGradient id="paint12_radial" cx="0" cy="0" r="1" gradientUnits="userSpaceOnUse" gradientTransform="translate(1.96562 1.96447) rotate(90) scale(1.96447 1.96562)">
<stop stop-color="white"/>
<stop offset="0.457932" stop-color="#DEA253" stop-opacity="0.32"/>
<stop offset="1" stop-color="#C4C4C4" stop-opacity="0"/>
<stop offset="1" stop-color="white" stop-opacity="0"/>
</radialGradient>
<radialGradient id="paint13_radial" cx="0" cy="0" r="1" gradientUnits="userSpaceOnUse" gradientTransform="translate(0.103466 3.27982) rotate(90) scale(3.27982 0.103466)">
<stop stop-color="white"/>
<stop offset="0.270421" stop-color="white" stop-opacity="0.5"/>
<stop offset="1" stop-color="white" stop-opacity="0"/>
</radialGradient>
<radialGradient id="paint14_radial" cx="0" cy="0" r="1" gradientUnits="userSpaceOnUse" gradientTransform="translate(0.103369 3.48399) rotate(90) scale(3.48399 0.103369)">
<stop stop-color="white"/>
<stop offset="1" stop-color="white" stop-opacity="0"/>
</radialGradient>
<linearGradient id="paint15_linear" x1="116.467" y1="25.2793" x2="116.506" y2="3.3501" gradientUnits="userSpaceOnUse">
<stop offset="0.0833333" stop-color="#FF004B" stop-opacity="0"/>
<stop offset="0.510417" stop-color="#F9004B"/>
</linearGradient>
<linearGradient id="paint16_linear" x1="114.484" y1="4.12566" x2="114.43" y2="21.7791" gradientUnits="userSpaceOnUse">
<stop offset="0.0453793" stop-color="#FFB856"/>
<stop offset="0.544813" stop-color="#E8C981"/>
<stop offset="1" stop-color="#FFF1C9" stop-opacity="0"/>
</linearGradient>
<clipPath id="clip0">
<rect width="25" height="24" fill="white" transform="translate(105 1.7793)"/>
</clipPath>
</defs>
</svg>
