<svg width="209" height="24" viewBox="0 0 209 24" fill="none" xmlns="http://www.w3.org/2000/svg">
<path d="M93.3538 0.237575C93.4703 0.0876757 93.6496 0 93.8395 0H94.4548C94.5828 0 94.6548 0.147244 94.5762 0.248299L90.6464 5.30089C90.5298 5.45079 90.3505 5.53847 90.1606 5.53847H89.5454C89.4174 5.53847 89.3454 5.39122 89.424 5.29017L93.3538 0.237575Z" fill="#E6123D"/>
<path d="M85.2303 0.615385C85.563 0.615385 85.8084 0.835976 85.8417 1.15312L85.8456 1.22796V3.06569C85.8456 3.39706 85.624 3.64122 85.3055 3.67441L85.2303 3.67826H83.0769C82.7442 3.67826 82.4988 3.45778 82.4655 3.14055L82.4616 3.06569V1.22796C82.4616 0.8967 82.6832 0.652447 83.0017 0.619244L83.0769 0.615385H85.2303Z" fill="#E6123D"/>
<path d="M113.283 5.01533C112.939 5.01533 112.656 4.75611 112.619 4.42351L112.615 4.35119L112.616 1.27954C112.616 0.937167 112.876 0.655349 113.21 0.619294L113.283 0.615398H115.152C115.496 0.615398 115.779 0.874391 115.815 1.20717L115.819 1.27954L115.82 2.14648L117.97 2.14633C118.314 2.14633 118.597 2.40532 118.633 2.7381L118.637 2.81047V4.35119C118.637 4.69332 118.377 4.97534 118.042 5.01143L117.97 5.01533H113.283Z" fill="#E6123D"/>
<path d="M206.091 19.6001C206.435 19.6001 206.718 19.8593 206.754 20.1919L206.758 20.2642L206.758 23.3359C206.758 23.6782 206.498 23.9601 206.163 23.9961L206.091 24H204.221C203.877 24 203.594 23.741 203.558 23.4082L203.554 23.3359L203.553 22.4689L201.404 22.4691C201.06 22.4691 200.777 22.2101 200.741 21.8773L200.737 21.8049V20.2642C200.737 19.9221 200.997 19.6401 201.331 19.604L201.404 19.6001H206.091Z" fill="#E6123D"/>
<path d="M182.158 5.0389C182.194 5.37149 182.477 5.63071 182.821 5.63071H187.508L187.581 5.62681C187.915 5.59073 188.175 5.3087 188.175 4.96657V3.42585L188.171 3.35348C188.135 3.02071 187.852 2.76171 187.508 2.76171L185.359 2.76186L185.358 1.89492L185.354 1.82255C185.318 1.48978 185.035 1.23078 184.69 1.23078H182.821L182.749 1.23468C182.414 1.27073 182.154 1.55255 182.154 1.89492L182.154 4.96657L182.158 5.0389Z" fill="#E6123D"/>
<path d="M67.0759 5.53847C67.4088 5.53847 67.654 5.75906 67.6873 6.0762L67.6912 6.15104V7.98877C67.6912 8.32014 67.4697 8.5643 67.1511 8.59749L67.0759 8.60134H62.1538C61.821 8.60134 61.5757 8.38086 61.5424 8.06363L61.5385 7.98877V6.15104C61.5385 5.81978 61.76 5.57553 62.0786 5.54232L62.1538 5.53847H67.0759Z" fill="#E6123D"/>
<path d="M197.534 20.1542C197.5 19.837 197.255 19.6164 196.922 19.6164H192L191.925 19.6203C191.606 19.6535 191.385 19.8978 191.385 20.229V22.0668L191.389 22.1416C191.422 22.4588 191.667 22.6793 192 22.6793H196.922L196.997 22.6755C197.316 22.6423 197.537 22.3981 197.537 22.0668V20.229L197.534 20.1542Z" fill="#E6123D"/>
<path d="M17.8451 19.6164C18.178 19.6164 18.4232 19.837 18.4565 20.1542L18.4604 20.229V22.0668C18.4604 22.3981 18.2389 22.6423 17.9203 22.6755L17.8451 22.6793H12.923C12.5902 22.6793 12.3449 22.4588 12.3116 22.1416L12.3077 22.0668V20.229C12.3077 19.8978 12.5292 19.6535 12.8478 19.6203L12.923 19.6164H17.8451Z" fill="#E6123D"/>
<path d="M168.303 2.99927C168.27 2.68213 168.025 2.46154 167.692 2.46154H165.538L165.463 2.4654C165.145 2.4986 164.923 2.74286 164.923 3.07412V4.91184L164.927 4.98671C164.96 5.30393 165.206 5.52442 165.538 5.52442H167.692L167.767 5.52056C168.086 5.48737 168.307 5.24322 168.307 4.91184V3.07412L168.303 2.99927Z" fill="#E6123D"/>
<path d="M8.61554 2.46154C8.94825 2.46154 9.19358 2.68213 9.22693 2.99927L9.23081 3.07412V4.91184C9.23081 5.24322 9.00924 5.48737 8.69071 5.52056L8.61554 5.52442H6.76915C6.43643 5.52442 6.19111 5.30393 6.15776 4.98671L6.15388 4.91184V3.07412C6.15388 2.74286 6.37544 2.4986 6.69397 2.4654L6.76915 2.46154H8.61554Z" fill="#E6123D"/>
<path d="M42.1494 2.99927C42.116 2.68213 41.8707 2.46154 41.538 2.46154H39.3845L39.3094 2.4654C38.9908 2.4986 38.7693 2.74286 38.7693 3.07412V4.91184L38.7732 4.98671C38.8065 5.30393 39.0518 5.52442 39.3845 5.52442H41.538L41.6132 5.52056C41.9317 5.48737 42.1532 5.24322 42.1532 4.91184V3.07412L42.1494 2.99927Z" fill="#E6123D"/>
<path d="M139.073 9.65429C139.004 7.15101 137.32 5.52723 134.768 5.52723H129.231L129.156 5.5311C128.837 5.56433 128.615 5.80878 128.615 6.13981V7.97754L128.619 8.05231C128.653 8.36921 128.898 8.59011 129.231 8.59011H134.768L134.875 8.59233C135.64 8.62488 135.999 9.01661 135.999 9.81526V13.4907L135.996 13.5971C135.964 14.3588 135.57 14.7159 134.768 14.7159H129.231L129.156 14.7197C128.837 14.753 128.615 14.9973 128.615 15.3284V17.1662L128.619 17.241C128.653 17.5579 128.898 17.7787 129.231 17.7787H134.768L134.93 17.7766C137.444 17.7078 139.075 16.0311 139.075 13.4907V9.81526L139.073 9.65429Z" fill="#E6123D"/>
<path d="M26.7626 0C26.5727 0 26.3934 0.0876757 26.2768 0.237575L22.347 5.29017C22.2684 5.39122 22.3404 5.53847 22.4684 5.53847H23.0837C23.2736 5.53847 23.4529 5.45079 23.5694 5.30089L27.4992 0.248299C27.5778 0.147244 27.5058 0 27.3778 0H26.7626Z" fill="#E6123D"/>
<path fill-rule="evenodd" clip-rule="evenodd" d="M147.077 11.0769V14.7692H145.846C144.827 14.7692 144 13.9427 144 12.9231V2.46154C144 2.12167 143.725 1.84615 143.385 1.84615H141.539C141.199 1.84615 140.923 2.12167 140.923 2.46154V12.9231C140.923 15.642 143.127 17.8462 145.846 17.8462H159.077C160.193 17.8462 161.217 17.45 162.015 16.7906L162.562 17.5811C162.677 17.7471 162.866 17.8462 163.068 17.8462H166.746C168.146 17.8462 169.41 17.2614 170.306 16.3228L171.178 17.5811C171.292 17.7471 171.482 17.8462 171.684 17.8462H175.361C176.577 17.8462 177.691 17.4051 178.55 16.6742L179.178 17.5811C179.292 17.7471 179.482 17.8462 179.684 17.8462H182.121C183.343 17.8462 184.461 17.4012 185.321 16.6646L185.956 17.5811C186.071 17.7471 186.26 17.8462 186.462 17.8462H187.054C188.336 17.8462 189.504 17.3557 190.38 16.5521L190.903 17.5225C191.01 17.7219 191.218 17.8462 191.445 17.8462H195.692C196.906 17.8462 198.003 17.3441 198.786 16.5364L199.509 17.5811C199.624 17.7471 199.813 17.8462 200.015 17.8462H203.693C206.411 17.8462 208.616 15.642 208.616 12.9231V9.23077C208.616 8.89091 208.34 8.61539 208 8.61539H206.154C205.814 8.61539 205.539 8.89091 205.539 9.23077V12.9231C205.539 13.9427 204.712 14.7692 203.693 14.7692H199.822C199.938 14.3793 200 13.9661 200 13.5385V9.23077C200 8.89091 199.725 8.61539 199.385 8.61539H197.539C197.199 8.61539 196.923 8.89091 196.923 9.23077V13.5385C196.923 14.2182 196.372 14.7692 195.692 14.7692H192V9.23077C192 8.89091 191.725 8.61539 191.385 8.61539H189.515C189.175 8.61539 188.9 8.89091 188.9 9.23077V12.9231C188.9 13.9427 188.073 14.7692 187.054 14.7692H186.687C186.917 14.1991 187.045 13.5759 187.045 12.9231V9.23077C187.045 8.89091 186.769 8.61539 186.429 8.61539H184.583C184.243 8.61539 183.968 8.89091 183.968 9.23077V12.9231C183.968 13.9427 183.141 14.7692 182.121 14.7692H179.926C180.157 14.1991 180.284 13.5759 180.284 12.9231V9.23077C180.284 8.89091 180.009 8.61539 179.669 8.61539H177.823C177.483 8.61539 177.207 8.89091 177.207 9.23077V12.9231C177.207 13.9427 176.381 14.7692 175.361 14.7692H171.311C171.542 14.1991 171.669 13.5759 171.669 12.9231V9.23077C171.669 8.89091 171.393 8.61539 171.053 8.61539H169.207C168.867 8.61539 168.592 8.89091 168.592 9.23077V12.9231C168.592 13.9427 167.765 14.7692 166.746 14.7692H163.43C163.6 14.288 163.692 13.7702 163.692 13.2308C163.692 10.6818 161.626 8.61539 159.077 8.61539H156.265C155.413 7.14388 153.822 6.15385 152 6.15385C149.281 6.15385 147.077 8.35799 147.077 11.0769ZM152 9.23077C150.98 9.23077 150.154 10.0573 150.154 11.0769V14.7692H153.846V11.0769C153.846 10.0573 153.02 9.23077 152 9.23077ZM156.923 14.7692L156.923 11.6923H159.077C159.927 11.6923 160.616 12.3811 160.616 13.2308C160.616 14.0804 159.927 14.7692 159.077 14.7692H156.923Z" fill="#E6123D"/>
<path fill-rule="evenodd" clip-rule="evenodd" d="M89.2308 12.9231C89.2308 13.5759 89.1038 14.1991 88.873 14.7692H97.8436C99.6044 14.7692 100.92 13.4535 100.92 11.6923V11.0769C100.92 9.31576 99.6044 8 97.8436 8H90.768C90.2143 8 90.1076 7.50373 90.4604 7.07693L95.6421 0.458254C95.8821 0.168051 96.239 0 96.6155 0H98.9791C99.4546 0 99.7152 0.553847 99.4122 0.920303L96.3054 4.92308H97.8436C101.372 4.92308 103.996 7.5481 103.996 11.0769V11.6923C103.996 12.8314 103.723 13.8764 103.234 14.7692H106.438C107.458 14.7692 108.284 13.9427 108.284 12.9231V9.23077C108.284 8.89091 108.56 8.61539 108.899 8.61539H110.746C111.086 8.61539 111.361 8.89091 111.361 9.23077V12.9231C111.361 13.5759 111.234 14.1991 111.003 14.7692H113.198C114.218 14.7692 115.044 13.9427 115.044 12.9231V9.23077C115.044 8.89091 115.32 8.61539 115.66 8.61539H117.506C117.846 8.61539 118.121 8.89091 118.121 9.23077V12.9231C118.121 13.5759 117.994 14.1991 117.764 14.7692H118.13C119.15 14.7692 119.977 13.9427 119.977 12.9231V9.23077C119.977 8.89091 120.252 8.61539 120.592 8.61539H122.438C122.778 8.61539 123.053 8.89091 123.053 9.23077V12.9231C123.053 15.642 120.849 17.8462 118.13 17.8462H117.539C117.337 17.8462 117.148 17.7471 117.033 17.5811L116.398 16.6646C115.538 17.4012 114.42 17.8462 113.198 17.8462H110.76C110.558 17.8462 110.369 17.7471 110.254 17.5811L109.627 16.6741C108.768 17.4051 107.654 17.8462 106.438 17.8462H102.76C102.558 17.8462 102.369 17.7471 102.254 17.5811L101.605 16.6436C100.582 17.4059 99.2885 17.8462 97.8436 17.8462H75.0681C74.8661 17.8462 74.677 17.7471 74.5621 17.5811L73.9342 16.6741C73.0752 17.4051 71.9619 17.8462 70.7456 17.8462H58.4617C55.7427 17.8462 53.5386 15.642 53.5386 12.9231V9.23077C53.5386 8.89091 53.8141 8.61539 54.154 8.61539H56.0001C56.34 8.61539 56.6155 8.89091 56.6155 9.23077V12.9231C56.6155 13.9427 57.4421 14.7692 58.4617 14.7692H70.7456C71.7652 14.7692 72.5917 13.9427 72.5917 12.9231V9.23077C72.5917 8.89091 72.8672 8.61539 73.2071 8.61539H75.0533C75.3931 8.61539 75.6686 8.89091 75.6686 9.23077V12.9231C75.6686 13.5759 75.5415 14.1991 75.3108 14.7692H79.7425C79.5118 14.1991 79.3847 13.5759 79.3847 12.9231V11.0769C79.3847 8.35799 81.5888 6.15385 84.3078 6.15385C87.0267 6.15385 89.2308 8.35799 89.2308 11.0769V12.9231ZM86.1539 11.0769V12.9231C86.1539 13.9427 85.3274 14.7692 84.3078 14.7692C83.2882 14.7692 82.4616 13.9427 82.4616 12.9231V11.0769C82.4616 10.0573 83.2882 9.23077 84.3078 9.23077C85.3274 9.23077 86.1539 10.0573 86.1539 11.0769Z" fill="#E6123D"/>
<path d="M36.9193 11.6923C36.9193 12.8314 36.6458 13.8764 36.1567 14.7692H41.2071C42.2268 14.7692 43.0533 13.9427 43.0533 12.9231V9.23077C43.0533 8.89091 43.3288 8.61539 43.6687 8.61539H45.5148C45.8547 8.61539 46.1302 8.89091 46.1302 9.23077V12.9231C46.1302 15.642 43.9261 17.8462 41.2071 17.8462H36.9142C36.7123 17.8462 36.5232 17.7471 36.4082 17.5811L35.2895 15.9652C34.1858 17.1389 32.5979 17.8462 30.7667 17.8462H20.1466L19.2033 16.6412C18.3392 17.3918 17.2108 17.8462 15.9764 17.8462H10.4526C10.2507 17.8462 10.0616 17.7471 9.94668 17.5811L9.27092 16.605V16.6154C9.27092 20.1442 6.64628 22.7692 3.11825 22.7692H2.48963C2.11119 22.7692 1.7538 22.5952 1.52052 22.2972L0.203871 20.6154C-0.148931 20.1886 -0.0422349 19.6923 0.511505 19.6923H3.11825C4.87909 19.6923 6.19459 18.3766 6.19459 16.6154L6.19399 9.23077C6.19399 8.89091 6.46951 8.61539 6.80938 8.61539H8.65553C8.9954 8.61539 9.27092 8.89091 9.27092 9.23077V14.7692H15.9764C16.996 14.7692 17.8225 13.9427 17.8225 12.9231V9.23077C17.8225 8.89091 18.098 8.61539 18.4379 8.61539H20.2841C20.6239 8.61539 20.8995 8.89091 20.8995 9.23077V12.9231C20.8995 13.5759 20.7724 14.1991 20.5416 14.7692H30.7667C32.5275 14.7692 33.843 13.4535 33.843 11.6923V11.0769C33.843 9.31576 32.5275 8 30.7667 8H23.6911C23.1373 8 23.0306 7.50373 23.3835 7.07693L28.5651 0.458254C28.8051 0.168051 29.1621 0 29.5385 0H31.9021C32.3777 0 32.6382 0.553847 32.3352 0.920303L29.2285 4.92308H30.7667C34.2947 4.92308 36.9193 7.5481 36.9193 11.0769V11.6923Z" fill="#E6123D"/>
<path d="M48.0001 2.46154C48.0001 2.12167 48.2756 1.84615 48.6154 1.84615H50.4616C50.8015 1.84615 51.077 2.12167 51.077 2.46154V17.2308C51.077 17.5706 50.8015 17.8462 50.4616 17.8462H48.6154C48.2756 17.8462 48.0001 17.5706 48.0001 17.2308V2.46154Z" fill="#E6123D"/>
</svg>
